<svg width="600" height="144" viewBox="0 0 600 144" fill="none" xmlns="http://www.w3.org/2000/svg">
<rect width="600" height="144" fill="white"/>
<path d="M62.5627 98.81C58.1887 98.81 54.0847 97.973 50.2507 96.299C46.4707 94.625 43.1227 92.303 40.2067 89.333C37.3447 86.309 35.1037 82.853 33.4837 78.965C31.8637 75.023 31.0537 70.811 31.0537 66.329C31.0537 61.901 31.8367 57.743 33.4027 53.855C35.0227 49.913 37.2637 46.457 40.1257 43.487C43.0417 40.517 46.3897 38.195 50.1697 36.521C54.0037 34.793 58.1347 33.929 62.5627 33.929C66.4507 33.929 69.9877 34.496 73.1737 35.63C76.3597 36.764 79.4377 38.573 82.4077 41.057C82.8937 41.435 83.1637 41.894 83.2177 42.434C83.3257 42.92 83.2717 43.406 83.0557 43.892C82.8397 44.324 82.5157 44.648 82.0837 44.864C81.9757 45.296 81.7057 45.62 81.2737 45.836C80.8417 46.052 80.3287 46.133 79.7347 46.079C79.1947 46.025 78.6547 45.782 78.1147 45.35C76.0087 43.514 73.7137 42.164 71.2297 41.3C68.7457 40.382 65.8567 39.923 62.5627 39.923C59.0527 39.923 55.7587 40.625 52.6807 42.029C49.6567 43.433 46.9837 45.35 44.6617 47.78C42.3397 50.21 40.5037 53.018 39.1537 56.204C37.8577 59.39 37.2097 62.765 37.2097 66.329C37.2097 70.001 37.8577 73.43 39.1537 76.616C40.5037 79.802 42.3397 82.61 44.6617 85.04C46.9837 87.47 49.6567 89.387 52.6807 90.791C55.7587 92.141 59.0527 92.816 62.5627 92.816C65.5327 92.816 68.3407 92.33 70.9867 91.358C73.6327 90.386 76.1437 88.982 78.5197 87.146C79.1677 86.606 79.8427 86.39 80.5447 86.498C81.3007 86.606 81.9487 86.93 82.4887 87.47C83.0287 88.01 83.2987 88.712 83.2987 89.576C83.2987 90.008 83.2447 90.413 83.1367 90.791C83.0287 91.115 82.7857 91.466 82.4077 91.844C79.6537 94.382 76.5757 96.191 73.1737 97.271C69.7717 98.297 66.2347 98.81 62.5627 98.81ZM83.2987 89.576L77.1427 88.28V71.999H64.5067C63.5887 71.999 62.8327 71.729 62.2387 71.189C61.6447 70.649 61.3477 69.974 61.3477 69.164C61.3477 68.354 61.6447 67.706 62.2387 67.22C62.8327 66.68 63.5887 66.41 64.5067 66.41H80.1397C81.0577 66.41 81.8137 66.707 82.4077 67.301C83.0017 67.841 83.2987 68.57 83.2987 69.488V89.576ZM112.09 98.405C107.932 98.405 104.206 97.433 100.912 95.489C97.6178 93.491 94.9988 90.791 93.0548 87.389C91.1648 83.987 90.2198 80.153 90.2198 75.887C90.2198 71.567 91.1918 67.706 93.1358 64.304C95.1338 60.902 97.8338 58.229 101.236 56.285C104.638 54.287 108.472 53.288 112.738 53.288C117.004 53.288 120.811 54.287 124.159 56.285C127.561 58.229 130.234 60.902 132.178 64.304C134.176 67.706 135.202 71.567 135.256 75.887L132.745 77.831C132.745 81.719 131.827 85.229 129.991 88.361C128.209 91.439 125.752 93.896 122.62 95.732C119.542 97.514 116.032 98.405 112.09 98.405ZM112.738 92.735C115.87 92.735 118.651 92.006 121.081 90.548C123.565 89.09 125.509 87.092 126.913 84.554C128.371 81.962 129.1 79.073 129.1 75.887C129.1 72.647 128.371 69.758 126.913 67.22C125.509 64.682 123.565 62.684 121.081 61.226C118.651 59.714 115.87 58.958 112.738 58.958C109.66 58.958 106.879 59.714 104.395 61.226C101.911 62.684 99.9398 64.682 98.4818 67.22C97.0238 69.758 96.2948 72.647 96.2948 75.887C96.2948 79.073 97.0238 81.962 98.4818 84.554C99.9398 87.092 101.911 89.09 104.395 90.548C106.879 92.006 109.66 92.735 112.738 92.735ZM132.097 98C131.179 98 130.423 97.73 129.829 97.19C129.235 96.596 128.938 95.84 128.938 94.922V81.071L130.477 74.672L135.256 75.887V94.922C135.256 95.84 134.959 96.596 134.365 97.19C133.771 97.73 133.015 98 132.097 98ZM167.474 98.405C163.1 98.405 159.212 97.46 155.81 95.57C152.462 93.626 149.816 90.953 147.872 87.551C145.982 84.149 145.037 80.261 145.037 75.887C145.037 71.459 145.928 67.571 147.71 64.223C149.546 60.821 152.057 58.148 155.243 56.204C158.429 54.26 162.101 53.288 166.259 53.288C170.363 53.288 173.927 54.233 176.951 56.123C180.029 57.959 182.405 60.524 184.079 63.818C185.753 67.112 186.59 70.865 186.59 75.077C186.59 75.941 186.32 76.643 185.78 77.183C185.24 77.669 184.538 77.912 183.674 77.912H149.249V72.728H184.322L180.839 75.239C180.893 72.107 180.326 69.299 179.138 66.815C177.95 64.331 176.249 62.387 174.035 60.983C171.875 59.579 169.283 58.877 166.259 58.877C163.181 58.877 160.481 59.606 158.159 61.064C155.837 62.522 154.028 64.547 152.732 67.139C151.49 69.677 150.869 72.593 150.869 75.887C150.869 79.181 151.571 82.097 152.975 84.635C154.433 87.173 156.404 89.171 158.888 90.629C161.372 92.087 164.234 92.816 167.474 92.816C169.418 92.816 171.362 92.492 173.306 91.844C175.304 91.142 176.897 90.278 178.085 89.252C178.679 88.766 179.354 88.523 180.11 88.523C180.866 88.469 181.514 88.658 182.054 89.09C182.756 89.738 183.107 90.44 183.107 91.196C183.161 91.952 182.864 92.6 182.216 93.14C180.434 94.652 178.166 95.921 175.412 96.947C172.658 97.919 170.012 98.405 167.474 98.405ZM206.699 98C204.539 98 202.595 97.406 200.867 96.218C199.193 95.03 197.87 93.383 196.898 91.277C195.98 89.171 195.521 86.741 195.521 83.987V37.817C195.521 36.899 195.791 36.17 196.331 35.63C196.925 35.036 197.681 34.739 198.599 34.739C199.517 34.739 200.246 35.036 200.786 35.63C201.38 36.17 201.677 36.899 201.677 37.817V83.987C201.677 86.309 202.136 88.199 203.054 89.657C204.026 91.115 205.241 91.844 206.699 91.844H208.724C209.534 91.844 210.182 92.141 210.668 92.735C211.154 93.275 211.397 94.004 211.397 94.922C211.397 95.84 211.046 96.596 210.344 97.19C209.696 97.73 208.832 98 207.752 98H206.699ZM229.559 98C227.399 98 225.455 97.406 223.727 96.218C222.053 95.03 220.73 93.383 219.758 91.277C218.84 89.171 218.381 86.741 218.381 83.987V37.817C218.381 36.899 218.651 36.17 219.191 35.63C219.785 35.036 220.541 34.739 221.459 34.739C222.377 34.739 223.106 35.036 223.646 35.63C224.24 36.17 224.537 36.899 224.537 37.817V83.987C224.537 86.309 224.996 88.199 225.914 89.657C226.886 91.115 228.101 91.844 229.559 91.844H231.584C232.394 91.844 233.042 92.141 233.528 92.735C234.014 93.275 234.257 94.004 234.257 94.922C234.257 95.84 233.906 96.596 233.204 97.19C232.556 97.73 231.692 98 230.612 98H229.559ZM260.498 98.405C256.124 98.405 252.236 97.46 248.834 95.57C245.486 93.626 242.84 90.953 240.896 87.551C239.006 84.149 238.061 80.261 238.061 75.887C238.061 71.459 238.952 67.571 240.734 64.223C242.57 60.821 245.081 58.148 248.267 56.204C251.453 54.26 255.125 53.288 259.283 53.288C263.387 53.288 266.951 54.233 269.975 56.123C273.053 57.959 275.429 60.524 277.103 63.818C278.777 67.112 279.614 70.865 279.614 75.077C279.614 75.941 279.344 76.643 278.804 77.183C278.264 77.669 277.562 77.912 276.698 77.912H242.273V72.728H277.346L273.863 75.239C273.917 72.107 273.35 69.299 272.162 66.815C270.974 64.331 269.273 62.387 267.059 60.983C264.899 59.579 262.307 58.877 259.283 58.877C256.205 58.877 253.505 59.606 251.183 61.064C248.861 62.522 247.052 64.547 245.756 67.139C244.514 69.677 243.893 72.593 243.893 75.887C243.893 79.181 244.595 82.097 245.999 84.635C247.457 87.173 249.428 89.171 251.912 90.629C254.396 92.087 257.258 92.816 260.498 92.816C262.442 92.816 264.386 92.492 266.33 91.844C268.328 91.142 269.921 90.278 271.109 89.252C271.703 88.766 272.378 88.523 273.134 88.523C273.89 88.469 274.538 88.658 275.078 89.09C275.78 89.738 276.131 90.44 276.131 91.196C276.185 91.952 275.888 92.6 275.24 93.14C273.458 94.652 271.19 95.921 268.436 96.947C265.682 97.919 263.036 98.405 260.498 98.405ZM317.864 98C317 98 316.244 97.703 315.596 97.109C315.002 96.461 314.705 95.705 314.705 94.841V37.898C314.705 36.98 315.002 36.224 315.596 35.63C316.244 35.036 317 34.739 317.864 34.739C319.16 34.739 320.105 35.279 320.699 36.359L347.996 90.629H345.242L372.053 36.359C372.701 35.279 373.646 34.739 374.888 34.739C375.752 34.739 376.481 35.036 377.075 35.63C377.669 36.224 377.966 36.98 377.966 37.898V94.841C377.966 95.705 377.669 96.461 377.075 97.109C376.481 97.703 375.752 98 374.888 98C373.97 98 373.187 97.703 372.539 97.109C371.945 96.461 371.648 95.705 371.648 94.841V46.079L373.025 46.16L349.13 95.003C348.536 96.029 347.618 96.542 346.376 96.542C345.026 96.542 344.054 95.894 343.46 94.598L319.403 46.484L321.023 46.079V94.841C321.023 95.705 320.699 96.461 320.051 97.109C319.457 97.703 318.728 98 317.864 98ZM413.561 98.405C409.241 98.405 405.38 97.433 401.978 95.489C398.576 93.545 395.903 90.872 393.959 87.47C392.015 84.068 391.043 80.207 391.043 75.887C391.043 71.513 392.015 67.625 393.959 64.223C395.903 60.821 398.576 58.148 401.978 56.204C405.38 54.26 409.241 53.288 413.561 53.288C417.881 53.288 421.715 54.26 425.063 56.204C428.465 58.148 431.138 60.821 433.082 64.223C435.026 67.625 436.025 71.513 436.079 75.887C436.079 80.207 435.08 84.068 433.082 87.47C431.138 90.872 428.465 93.545 425.063 95.489C421.715 97.433 417.881 98.405 413.561 98.405ZM413.561 92.735C416.693 92.735 419.501 92.006 421.985 90.548C424.469 89.09 426.413 87.092 427.817 84.554C429.221 82.016 429.923 79.127 429.923 75.887C429.923 72.647 429.221 69.758 427.817 67.22C426.413 64.628 424.469 62.603 421.985 61.145C419.501 59.687 416.693 58.958 413.561 58.958C410.429 58.958 407.621 59.687 405.137 61.145C402.653 62.603 400.682 64.628 399.224 67.22C397.82 69.758 397.118 72.647 397.118 75.887C397.118 79.127 397.82 82.016 399.224 84.554C400.682 87.092 402.653 89.09 405.137 90.548C407.621 92.006 410.429 92.735 413.561 92.735ZM486.198 98C485.28 98 484.524 97.703 483.93 97.109C483.336 96.515 483.039 95.786 483.039 94.922V73.862C483.039 70.514 482.391 67.76 481.095 65.6C479.853 63.44 478.125 61.82 475.911 60.74C473.751 59.66 471.294 59.12 468.54 59.12C465.894 59.12 463.491 59.633 461.331 60.659C459.225 61.685 457.551 63.089 456.309 64.871C455.067 66.653 454.446 68.678 454.446 70.946H449.991C450.099 67.544 451.017 64.52 452.745 61.874C454.473 59.174 456.768 57.068 459.63 55.556C462.492 53.99 465.678 53.207 469.188 53.207C473.022 53.207 476.451 54.017 479.475 55.637C482.499 57.203 484.875 59.525 486.603 62.603C488.385 65.681 489.276 69.434 489.276 73.862V94.922C489.276 95.786 488.979 96.515 488.385 97.109C487.791 97.703 487.062 98 486.198 98ZM451.368 98C450.396 98 449.613 97.73 449.019 97.19C448.479 96.596 448.209 95.84 448.209 94.922V56.852C448.209 55.88 448.479 55.124 449.019 54.584C449.613 53.99 450.396 53.693 451.368 53.693C452.286 53.693 453.015 53.99 453.555 54.584C454.149 55.124 454.446 55.88 454.446 56.852V94.922C454.446 95.84 454.149 96.596 453.555 97.19C453.015 97.73 452.286 98 451.368 98ZM507.482 98C506.51 98 505.727 97.73 505.133 97.19C504.593 96.596 504.323 95.813 504.323 94.841V56.852C504.323 55.88 504.593 55.124 505.133 54.584C505.727 53.99 506.51 53.693 507.482 53.693C508.4 53.693 509.129 53.99 509.669 54.584C510.263 55.124 510.56 55.88 510.56 56.852V94.841C510.56 95.813 510.263 96.596 509.669 97.19C509.129 97.73 508.4 98 507.482 98ZM507.401 45.269C506.213 45.269 505.187 44.837 504.323 43.973C503.459 43.109 503.027 42.056 503.027 40.814C503.027 39.464 503.459 38.411 504.323 37.655C505.241 36.845 506.294 36.44 507.482 36.44C508.616 36.44 509.615 36.845 510.479 37.655C511.397 38.411 511.856 39.464 511.856 40.814C511.856 42.056 511.424 43.109 510.56 43.973C509.696 44.837 508.643 45.269 507.401 45.269ZM564.43 98C563.512 98 562.756 97.703 562.162 97.109C561.568 96.515 561.271 95.786 561.271 94.922V73.862C561.271 70.514 560.623 67.76 559.327 65.6C558.085 63.44 556.357 61.82 554.143 60.74C551.983 59.66 549.526 59.12 546.772 59.12C544.126 59.12 541.723 59.633 539.563 60.659C537.457 61.685 535.783 63.089 534.541 64.871C533.299 66.653 532.678 68.678 532.678 70.946H528.223C528.331 67.544 529.249 64.52 530.977 61.874C532.705 59.174 535 57.068 537.862 55.556C540.724 53.99 543.91 53.207 547.42 53.207C551.254 53.207 554.683 54.017 557.707 55.637C560.731 57.203 563.107 59.525 564.835 62.603C566.617 65.681 567.508 69.434 567.508 73.862V94.922C567.508 95.786 567.211 96.515 566.617 97.109C566.023 97.703 565.294 98 564.43 98ZM529.6 98C528.628 98 527.845 97.73 527.251 97.19C526.711 96.596 526.441 95.84 526.441 94.922V56.852C526.441 55.88 526.711 55.124 527.251 54.584C527.845 53.99 528.628 53.693 529.6 53.693C530.518 53.693 531.247 53.99 531.787 54.584C532.381 55.124 532.678 55.88 532.678 56.852V94.922C532.678 95.84 532.381 96.596 531.787 97.19C531.247 97.73 530.518 98 529.6 98Z" fill="#51608C"/>
</svg>
